# xmcd
#
# Track frame offsets: 
#        150
#        11028
#        24847
#        38101
#        51205
#        63595
#        76287
#        86167
#        98629
#        112490
#        127034
#        139925
#        151803
#        164321
#        177439
#        190923
#        201335
#        213826
#        227528
#        241091
#        252620
#        263537
#        276543
#        289966
#        303251
#
# Disc length: 4180 seconds
#
# Revision: 1
# Processed by: cddbd v1.5.2PL0 Copyright (c) Steve Scherf et al.
# Submitted via: ExactAudioCopyFreeDBPlugin 1.0
#
DISCID=6a105219
DTITLE=Various Artist - The Atlantic Records Story [Real Gone Music]
DYEAR=2016
DGENRE=Rhythm and Blues
TTITLE0=Clyde McPhatter and The Drifters - Honey Love
TTITLE1=LaVern Baker - I Can't Hold Out Any Longer
TTITLE2=The Clovers - Your Cash Ain't Nothin' But Trash
TTITLE3=Ruth Brown - Oh What a Dream
TTITLE4=Tommy Ridgely - Jam Up
TTITLE5=Carmen Taylor - Freddie
TTITLE6=Carmen Taylor - Ooh I
TTITLE7=Clyde McPhatter and The Drifters - Bip Bam
TTITLE8=LaVern Baker - Tweedle Dee
TTITLE9=LaVern Baker - Tomorrow Night
TTITLE10=Ray Charles - I Got a Woman
TTITLE11=The Clovers - Blue Velvet
TTITLE12=Joe Turner - Flip, Flop and Fly
TTITLE13=Joe Turner - Ti-Ri-Lee
TTITLE14=The Cardinals - The Door is Still Open
TTITLE15=The Cardinals - Miserlou
TTITLE16=Clyde McPhatter and The Drifters - What'cha Gonna Do
TTITLE17=LaVern Baker - Bop-Ting-A-Ling
TTITLE18=Ruth Brown - I Can See Everybody's Baby
TTITLE19=Ray Charles - This Little Girl of Mine
TTITLE20=The Cardinals - Come Back My Love
TTITLE21=Clyde McPhatter - Everybody's Laughing
TTITLE22=The Clovers - Hip Sip
TTITLE23=LaVern Baker - Play it Fair
TTITLE24=Ray Charles - Blackjack
EXTD=
EXTT0=
EXTT1=
EXTT2=
EXTT3=
EXTT4=
EXTT5=
EXTT6=
EXTT7=
EXTT8=
EXTT9=
EXTT10=
EXTT11=
EXTT12=
EXTT13=
EXTT14=
EXTT15=
EXTT16=
EXTT17=
EXTT18=
EXTT19=
EXTT20=
EXTT21=
EXTT22=
EXTT23=
EXTT24=
PLAYORDER=
